<svg width="302" height="60" viewBox="0 0 302 60" fill="none" xmlns="http://www.w3.org/2000/svg">
<path d="M33.5 9.5H281.866L301.294 29L281.866 48.5H33.5V9.5Z" stroke="#3E3C49"/>
<path d="M88.4524 33.9998L88.4404 28.9718L85.9684 33.1118H85.1044L82.6324 29.0678V33.9998H80.8084V25.5998H82.4164L85.5604 30.8198L88.6564 25.5998H90.2644L90.2764 33.9998H88.4524ZM101.267 32.4398V33.9998H94.7631V25.5998H101.111V27.1598H96.6951V28.9838H100.595V30.4958H96.6951V32.4398H101.267ZM113.901 32.4158V35.7398H112.101V33.9998H106.173V35.7398H104.373L104.385 32.4158H104.721C105.225 32.3998 105.581 32.0318 105.789 31.3118C105.997 30.5918 106.125 29.5638 106.173 28.2278L106.269 25.5998H112.725V32.4158H113.901ZM107.889 28.4078C107.849 29.4078 107.765 30.2478 107.637 30.9278C107.509 31.5998 107.313 32.0958 107.049 32.4158H110.805V27.1838H107.925L107.889 28.4078ZM117.61 25.5998H119.542V33.9998H117.61V25.5998ZM129.717 32.1998H125.817L125.073 33.9998H123.081L126.825 25.5998H128.745L132.501 33.9998H130.461L129.717 32.1998ZM129.105 30.7238L127.773 27.5078L126.441 30.7238H129.105ZM149.47 25.5998V33.9998H147.538V27.1838H143.746V33.9998H141.814V25.5998H149.47ZM159.64 32.1998H155.74L154.996 33.9998H153.004L156.748 25.5998H158.668L162.424 33.9998H160.384L159.64 32.1998ZM159.028 30.7238L157.696 27.5078L156.364 30.7238H159.028ZM169.574 25.5998C170.318 25.5998 170.962 25.7238 171.506 25.9718C172.058 26.2198 172.482 26.5718 172.778 27.0278C173.074 27.4838 173.222 28.0238 173.222 28.6478C173.222 29.2638 173.074 29.8038 172.778 30.2678C172.482 30.7238 172.058 31.0758 171.506 31.3238C170.962 31.5638 170.318 31.6838 169.574 31.6838H167.882V33.9998H165.938V25.5998H169.574ZM169.466 30.0998C170.05 30.0998 170.494 29.9758 170.798 29.7278C171.102 29.4718 171.254 29.1118 171.254 28.6478C171.254 28.1758 171.102 27.8158 170.798 27.5678C170.494 27.3118 170.05 27.1838 169.466 27.1838H167.882V30.0998H169.466ZM183.09 27.1838H180.402V33.9998H178.482V27.1838H175.806V25.5998H183.09V27.1838ZM186.711 25.5998H188.643V31.0718L192.651 25.5998H194.475V33.9998H192.555V28.5398L188.547 33.9998H186.711V25.5998ZM203.742 29.6198C204.23 29.7878 204.61 30.0518 204.882 30.4118C205.162 30.7638 205.302 31.1758 205.302 31.6478C205.302 32.1598 205.134 32.6038 204.798 32.9798C204.462 33.3558 204.006 33.6438 203.43 33.8438C202.862 34.0438 202.238 34.1438 201.558 34.1438C200.982 34.1438 200.406 34.0718 199.83 33.9278C199.262 33.7838 198.722 33.5638 198.21 33.2678L198.81 31.8758C199.178 32.0998 199.582 32.2718 200.022 32.3918C200.47 32.5038 200.906 32.5598 201.33 32.5598C201.906 32.5598 202.382 32.4558 202.758 32.2478C203.142 32.0398 203.334 31.7478 203.334 31.3718C203.334 31.0598 203.202 30.8238 202.938 30.6638C202.682 30.5038 202.33 30.4238 201.882 30.4238H199.83V28.9598H201.738C202.13 28.9598 202.434 28.8798 202.65 28.7198C202.874 28.5598 202.986 28.3398 202.986 28.0598C202.986 27.7318 202.826 27.4758 202.506 27.2918C202.194 27.1078 201.79 27.0158 201.294 27.0158C200.926 27.0158 200.546 27.0678 200.154 27.1718C199.762 27.2678 199.39 27.4158 199.038 27.6158L198.45 26.1038C199.338 25.6478 200.298 25.4198 201.33 25.4198C201.986 25.4198 202.59 25.5158 203.142 25.7078C203.694 25.8998 204.134 26.1798 204.462 26.5478C204.79 26.9158 204.954 27.3438 204.954 27.8318C204.954 28.2318 204.846 28.5878 204.63 28.8998C204.414 29.2118 204.118 29.4518 203.742 29.6198ZM214.929 32.1998H211.029L210.285 33.9998H208.293L212.037 25.5998H213.957L217.713 33.9998H215.673L214.929 32.1998ZM214.317 30.7238L212.985 27.5078L211.653 30.7238H214.317ZM228.931 25.5998V33.9998H226.987V30.5558H223.171V33.9998H221.227V25.5998H223.171V28.9118H226.987V25.5998H228.931ZM233.436 25.5998H235.368V31.0718L239.376 25.5998H241.2V33.9998H239.28V28.5398L235.272 33.9998H233.436V25.5998Z" fill="white"/>
<path d="M11 29C11 40.0457 19.9543 49 31 49C42.0457 49 51 40.0457 51 29C51 17.9543 42.0457 9 31 9C19.9543 9 11 17.9543 11 29Z" fill="#50653E"/>
<path d="M37.2074 21.9852C36.2074 22.3149 35.4444 23.0259 34.937 24.1037C34.5444 24.9408 34.3074 26 34.2296 27.2519C34.1333 28.8593 34.3333 30.4038 34.4296 31.0186H32.7667L33.0703 24.7296C33.174 23.1889 32.6815 21.9741 32.2519 21.2259C31.7963 20.4333 31.3259 19.9963 31.2703 19.9482L31.0852 19.7815L30.9037 19.9445C30.9 19.9482 30.4 20.3963 29.9222 21.2222C29.4926 21.9704 29 23.1852 29.1037 24.7186L29.4074 31.0112H27.7444C27.8407 30.3926 28.0444 28.8519 27.9444 27.2445C27.8703 25.9926 27.6296 24.9334 27.237 24.0963C26.7333 23.0186 25.9667 22.3037 24.9667 21.9778L24.6037 21.8593V34.2963H29.4037C29.5222 34.7778 29.9 35.9889 30.9 36.8852L31.0852 37.0482L31.2703 36.8852C32.2703 35.9889 32.6481 34.7778 32.7667 34.2963H37.5667V21.8667L37.2074 21.9852Z" fill="#FDCD00"/>
<path d="M16.8482 21.737L17.7222 23.4667L17.6482 23.6296L15.7778 24.1222L15.2 23.8629L15.2741 23.7L17.063 23.2667L16.2 21.6407L16.2741 21.4778L16.8482 21.737ZM16.8556 24.0074L17.9074 24.4814L17.6815 24.9814L16.0259 24.237L16.8556 24.0074ZM18.7556 22.5925L18.5297 23.0925L17.4778 22.6185L17.1 21.8481L18.7556 22.5925Z" fill="#FDCD00"/>
<path d="M16.8519 20.6481L17.8852 19.1777L18.2889 19.463L17.5704 20.4889L18.9481 21.4593L19.6963 20.3963L20.1 20.6814L19.0371 22.1852L16.8519 20.6481ZM18.1111 20.6556L18.5444 20.0407L18.9223 20.3074L18.4889 20.9222L18.1111 20.6556Z" fill="#FDCD00"/>
<path d="M19.9556 17.6926L19.163 18.4741L18.8148 18.1223L19.9964 16.9556L21.4074 18.3852L21.0185 18.7704L19.9556 17.6926ZM21.7815 18.2556L22.5297 19.0148L22.1408 19.4L21.7408 18.9926L20.5556 20.163L20.9556 20.5704L20.5667 20.9556L19.8148 20.1926L19.963 20.0481C20.0001 19.6407 19.8556 19.1777 19.2815 18.5926L19.6519 18.2296C20.1408 18.726 20.363 19.1889 20.3927 19.6259L21.7815 18.2556Z" fill="#FDCD00"/>
<path d="M22.8593 18.1369L22.4185 18.4628L20.826 16.3147L21.2667 15.9888L22.8593 18.1369Z" fill="#FDCD00"/>
<path d="M22.8185 15.4483L22.7778 14.9705L22.937 14.8816L25.2963 16.689L24.7852 16.9705L22.8185 15.4483ZM22.8407 15.689L23.4111 16.126L23.4778 16.7816L23.937 16.5297L24.326 16.8297L23.526 17.2742L23.5667 17.6483L23.0519 17.9334L22.8407 15.689Z" fill="#FDCD00"/>
<path d="M28.4815 15.7517L27.9519 15.8888L27.4111 13.7777L25.826 14.1851L25.7038 13.7073L27.8185 13.1628L28.4815 15.7517ZM26.8927 16.1591L26.363 16.2962L25.863 14.348L26.3927 14.211L26.8927 16.1591Z" fill="#FDCD00"/>
<path d="M29.4852 13.5741L29.8148 14.2148L29.5963 14.837L30.1185 14.8037L30.3407 15.2407L29.426 15.3L29.3037 15.6555L28.7185 15.6926L29.4852 13.5741ZM29.5667 13.3518L29.7333 12.9037L29.9148 12.8926L31.2815 15.5333L30.7 15.5704L29.5667 13.3518Z" fill="#FDCD00"/>
<path d="M33.6889 13.9813C33.6333 14.4925 33.1963 14.7999 32.637 14.7369L32.3519 14.7036L32.4037 14.2295L32.6889 14.2591C32.9481 14.2888 33.1074 14.148 33.1333 13.9184C33.1593 13.6962 33.0296 13.5184 32.774 13.4925L32.3185 13.4406L32.0777 15.6221L31.5333 15.5628L31.8259 12.9036L32.8259 13.0147C33.3815 13.0813 33.7444 13.4628 33.6889 13.9813Z" fill="#FDCD00"/>
<path d="M34.2963 13.2185L36.4741 13.8333L36.3407 14.3074L34.1667 13.6926L34.2963 13.2185ZM34.9407 14.0926L35.4667 14.2407L34.9223 16.1741L34.3963 16.0259L34.9407 14.0926Z" fill="#FDCD00"/>
<path d="M39.0223 15.5481L36.1148 16.6148L35.9556 16.537L36.1889 16.0592L39.0926 14.9925L39.2556 15.074L39.0223 15.5481ZM37.0334 15.5777L36.2963 15.8333L37.1519 14.0925L37.6407 14.3333L37.0334 15.5777ZM38.0519 17.5148L37.563 17.274L38.1741 16.0296L38.9111 15.774L38.0519 17.5148Z" fill="#FDCD00"/>
<path d="M38.6815 17.2483L39.1556 17.2557C39.1371 17.5705 39.2407 17.8038 39.4593 17.9668C39.6741 18.1261 39.9186 18.1483 40.0593 17.9631C40.1037 17.9001 40.126 17.8298 40.1148 17.752L40.6037 17.7816C40.6408 17.9631 40.6037 18.1446 40.4778 18.3113C40.1778 18.715 39.6148 18.715 39.163 18.378C38.7704 18.0853 38.6148 17.6631 38.6815 17.2483ZM39.7963 16.8038L40.1297 17.052C40.3037 17.1816 40.4815 17.1483 40.5852 17.0113C40.7 16.8594 40.6593 16.6668 40.4741 16.5298C40.2852 16.389 40.0519 16.378 39.8 16.4631L39.6556 16.0187C40.0074 15.8446 40.4297 15.8668 40.7815 16.1298C41.189 16.4334 41.3223 16.9298 41.0334 17.3187C40.7556 17.6927 40.2593 17.715 39.8556 17.415L39.5223 17.1668L39.7963 16.8038Z" fill="#FDCD00"/>
<path d="M42.1815 18.1922L41.9038 18.8552L41.2852 19.0885L41.6445 19.4663L41.4519 19.9182L40.8186 19.2552L40.4667 19.3885L40.063 18.9626L42.1815 18.1922ZM42.4075 18.1107L42.8593 17.9478L42.9852 18.0811L41.8371 20.8219L41.4334 20.3996L42.4075 18.1107Z" fill="#FDCD00"/>
<path d="M42.2704 21.485L41.9741 21.0257L44.226 19.5813L44.5223 20.0406L42.2704 21.485ZM43.2037 22.9443L42.9074 22.485L43.8815 21.8628L43.3333 21.011L43.7482 20.7443L44.2963 21.5961L45.1593 21.0443L45.4556 21.5036L43.2037 22.9443Z" fill="#FDCD00"/>
<path d="M46.3037 24.7442L43.4445 23.5554L43.3815 23.3887L43.8778 23.1961L46.7371 24.3813L46.8037 24.5517L46.3037 24.7442ZM44.2593 25.5368L44.063 25.0258L45.3556 24.5258L46.0704 24.8368L44.2593 25.5368ZM44.826 23.4184L44.1111 23.1072L45.9223 22.4072L46.1185 22.9184L44.826 23.4184Z" fill="#FDCD00"/>
<path d="M18.5481 36.3334C18.9556 36.1186 19.4037 36.1371 19.7593 36.3297L18.8333 36.8186C18.3481 37.0779 18.2037 37.5704 18.4333 38.0075C18.5926 38.3075 18.8556 38.4482 19.1889 38.4742L19.1259 38.9742C18.6481 38.963 18.2259 38.6926 17.9889 38.2445C17.6185 37.5482 17.8481 36.7 18.5481 36.3334ZM19.9852 37.1779C19.8519 36.926 19.6333 36.763 19.4296 36.6963L19.9481 36.4223C20.1407 36.5371 20.3148 36.7149 20.4333 36.9445C20.674 37.4 20.6519 37.9 20.4 38.3L19.9481 38.0704C20.1148 37.7816 20.1444 37.4779 19.9852 37.1779Z" fill="#FDCD00"/>
<path d="M18.9407 39.789L19.3148 39.4372C19.6185 39.689 20.1037 39.5631 20.8111 38.8964L20.8519 38.8557L21.2148 39.2372C20.0889 40.289 19.4296 40.2372 18.9407 39.789ZM20.5852 41.5001L20.2111 41.1039L21.7963 39.6076L20.9778 38.7409L21.337 38.4001L22.5296 39.6631L20.5852 41.5001Z" fill="#FDCD00"/>
<path d="M23.0444 40.7848L22.9185 41.4959L22.3666 41.8589L22.8037 42.1478L22.7148 42.6293L21.9519 42.1219L21.637 42.333L21.1481 42.007L23.0444 40.7848ZM23.2444 40.6589L23.6481 40.4033L23.8 40.5033L23.2852 43.4293L22.8 43.107L23.2444 40.6589Z" fill="#FDCD00"/>
<path d="M26.1703 43.7556C26.0036 44.1852 25.5481 44.3556 25.0666 44.1667L23.9555 43.7333L24.9296 41.2407L25.8111 41.5852C26.2666 41.763 26.4889 42.1814 26.3259 42.5926C26.1666 43.0037 25.7185 43.1926 25.2518 43.0148L25.0222 42.926L25.1852 42.5074L25.3815 42.5852C25.5852 42.663 25.7444 42.5889 25.8111 42.4222C25.8777 42.2518 25.8073 42.0963 25.6036 42.0148L25.2444 41.8741L24.6148 43.4889L25.2 43.7185C25.4185 43.8037 25.5963 43.7333 25.6703 43.5444C25.7073 43.4518 25.7036 43.3667 25.6666 43.2741L26.1222 43.1222C26.2444 43.3148 26.2592 43.537 26.1703 43.7556Z" fill="#FDCD00"/>
<path d="M27.6074 42.7519L27.7815 43.4519L27.4222 44.0074L27.937 44.0963L28.0519 44.5741L27.1481 44.4223L26.9444 44.7407L26.3667 44.6407L27.6074 42.7519ZM27.737 42.5519L28.0037 42.1519L28.1852 42.1815L28.9037 45.0667L28.3296 44.9704L27.737 42.5519Z" fill="#FDCD00"/>
<path d="M31.4185 43.4296L31.1815 44.1371L30.1889 42.4445L30.8185 42.3926L31.4185 43.4296ZM31.8667 44.4149C31.7222 44.8408 31.4444 45.0667 31.0037 45.1038C30.8815 45.1149 30.7519 45.1037 30.6407 45.0852L30.6 44.6186C30.6926 44.6186 30.774 44.6149 30.8444 44.6112C31.0556 44.5926 31.237 44.5038 31.3111 44.2815L31.9777 42.2889L32.5963 42.2371L31.8667 44.4149Z" fill="#FDCD00"/>
<path d="M32.7963 42.1925L33.3259 42.0555L33.9926 44.6444L33.463 44.7815L32.7963 42.1925ZM35.7444 44.1925L35.126 44.3518L33.7556 43.2444L34.3407 41.7925L34.9481 41.637L34.3704 43.0778L35.7444 44.1925Z" fill="#FDCD00"/>
<path d="M37.4148 41.5039C37.6222 41.9743 37.3963 42.4594 36.8815 42.6853L36.6185 42.8001L36.4259 42.3631L36.6889 42.2483C36.9259 42.1446 36.9963 41.9409 36.9037 41.7297C36.8148 41.5261 36.6148 41.4372 36.3778 41.5409L35.9592 41.726L36.8407 43.7372L36.3407 43.9557L35.2666 41.5076L36.1852 41.1039C36.7 40.8779 37.2037 41.0261 37.4148 41.5039Z" fill="#FDCD00"/>
<path d="M37.8815 40.6592L37.8148 40.1852L37.9703 40.0889L40.4296 41.7592L39.937 42.0703L37.8815 40.6592ZM37.9148 40.8963L38.5111 41.3036L38.6148 41.9555L39.0555 41.6777L39.4592 41.9555L38.6852 42.4444L38.7481 42.8185L38.2518 43.1296L37.9148 40.8963Z" fill="#FDCD00"/>
<path d="M38.874 38.7631C38.9963 38.9075 38.974 39.1261 38.8259 39.2482C38.6778 39.3742 38.4593 39.3631 38.337 39.2149C38.2148 39.0705 38.237 38.8519 38.3852 38.7261C38.5333 38.6038 38.7519 38.6186 38.874 38.7631ZM39.5556 38.0815C39.6778 38.2261 39.6556 38.4445 39.5074 38.5668C39.3592 38.6927 39.1407 38.6816 39.0185 38.5334C38.8963 38.389 38.9185 38.1705 39.0666 38.0445C39.2148 37.9261 39.4333 37.9371 39.5556 38.0815ZM41.2926 40.9927L40.874 41.3445L39.1482 39.3038L39.5666 38.9519L41.2926 40.9927Z" fill="#FDCD00"/>
<path d="M42.3333 39.9927L41.9815 40.4113L39.9407 38.6853L40.2926 38.2668L42.3333 39.9927ZM43.4519 38.6705L43.1 39.089L42.2185 38.3446L41.563 39.1186L41.1852 38.8001L41.8407 38.026L41.0593 37.3631L41.4111 36.9446L43.4519 38.6705Z" fill="#FDCD00"/>
<path d="M44.1889 37.378L43.9223 37.8557L41.5889 36.5483L41.8556 36.0706L44.1889 37.378Z" fill="#FDCD00"/>
<path d="M29.6556 34.6889C29.6037 34.537 29.5704 34.4074 29.5407 34.3037C29.5704 34.4074 29.6074 34.5407 29.6556 34.6889Z" fill="#D7AD06"/>
<path d="M27.6297 25.7556C27.6556 25.8889 27.6815 26.0259 27.7037 26.163C27.6778 26.0222 27.6556 25.8889 27.6297 25.7556Z" fill="#D7AD06"/>
<path d="M29.2185 24.3074C29.2185 24.1704 29.2222 24.0407 29.233 23.9111C29.2258 24.0407 29.2222 24.174 29.2185 24.3074Z" fill="#D7AD06"/>
<path d="M27.8444 28.2185C27.8444 27.9074 27.8371 27.5852 27.8185 27.263C27.8 26.9556 27.7704 26.6556 27.7334 26.374C27.7704 26.6593 27.8 26.9556 27.8185 27.263C27.8371 27.5889 27.8444 27.9111 27.8444 28.2185Z" fill="#D7AD06"/>
<path d="M29.2444 23.7852C29.2554 23.6593 29.2699 23.5333 29.2881 23.4111C29.2699 23.5296 29.2554 23.6556 29.2444 23.7852Z" fill="#D7AD06"/>
<path d="M29.8111 35.0998C29.7852 35.0406 29.763 34.985 29.7408 34.9294C29.763 34.985 29.7889 35.0406 29.8111 35.0998Z" fill="#D7AD06"/>
<path d="M29.9371 35.3702C29.9074 35.3073 29.8778 35.248 29.8519 35.1887C29.8778 35.248 29.9074 35.311 29.9371 35.3702Z" fill="#D7AD06"/>
<path d="M29.544 34.3036C29.5368 34.2703 29.5295 34.2369 29.5223 34.2073C29.5295 34.2369 29.5368 34.2703 29.544 34.3036Z" fill="#D7AD06"/>
<path d="M29.5111 34.1667C29.5146 34.178 29.5181 34.1931 29.5181 34.2082C29.5181 34.1931 29.5146 34.1818 29.5111 34.1667Z" fill="#D7AD06"/>
<path d="M31.8037 20.7703C31.8297 20.8073 31.8593 20.848 31.8852 20.8887C31.8593 20.848 31.8297 20.8073 31.8037 20.7703Z" fill="#D7AD06"/>
<path d="M32.263 21.5149C32.3148 21.6185 32.3704 21.7259 32.4223 21.8408C32.3667 21.7259 32.3148 21.6185 32.263 21.5149Z" fill="#D7AD06"/>
<path d="M32.4185 21.8406C32.4444 21.8998 32.4704 21.9591 32.4963 22.0183C32.4704 21.9591 32.4481 21.8998 32.4185 21.8406Z" fill="#D7AD06"/>
<path d="M32.5333 22.115C32.5704 22.2076 32.6074 22.3076 32.6407 22.4076C32.6074 22.3076 32.5704 22.2076 32.5333 22.115Z" fill="#D7AD06"/>
<path d="M32.263 21.5147C32.2223 21.4369 32.1815 21.3665 32.1444 21.2961C32.1 21.222 32.0593 21.1517 32.0148 21.0813C32.0593 21.148 32.1 21.222 32.1444 21.2961C32.1815 21.3665 32.2223 21.4406 32.263 21.5147Z" fill="#D7AD06"/>
<path d="M35.1556 24.2073C34.7741 25.0185 34.5444 26.0481 34.4704 27.2703C34.3667 29.0073 34.6148 30.6666 34.6926 31.1332L34.7148 31.2629H34.5852H32.6334H32.5185L32.526 31.1481L32.8334 24.7222C32.9334 23.2406 32.4593 22.0739 32.0444 21.3555C31.6 20.5814 31.1297 20.1555 31.1111 20.1369L31.0889 20.1147L31.0667 20.1369C31.063 20.1406 30.5889 20.5666 30.1371 21.3555C29.7223 22.0739 29.2519 23.2406 29.3481 24.7185L29.6593 31.1481L29.6667 31.2629H29.5519H27.5926H27.463L27.4852 31.1332C27.563 30.6666 27.8148 29.0036 27.7074 27.2703C27.6334 26.0481 27.4037 25.0185 27.0223 24.2073C26.5444 23.1925 25.8297 22.5222 24.8963 22.2147L24.8519 22.1999V34.0555H29.5148H29.6037L29.6223 34.1443C29.7 34.5147 30.0407 35.7888 31.0667 36.7073L31.0889 36.7295L31.1111 36.7073C32.1371 35.7888 32.4741 34.5147 32.5556 34.1443L32.5741 34.0555H32.663H37.326V22.1999L37.2815 22.2147C36.3481 22.5222 35.6334 23.1925 35.1556 24.2073ZM36.0185 23.2369L36.3704 22.9073C36.6037 22.7185 36.8667 22.5666 37.1481 22.4555V22.6555L35.2704 24.4073C35.463 23.9739 35.7074 23.5739 36.0185 23.2369ZM35.0593 24.9629L37.1444 23.0147V23.4851L34.8852 25.5962C34.9371 25.3851 34.9926 25.1703 35.0593 24.9629ZM34.7963 26.0406L37.1444 23.8481V24.3185L34.7148 26.5888C34.7371 26.4073 34.763 26.2222 34.7963 26.0406ZM34.6556 27.2814C34.663 27.1814 34.6667 27.0814 34.6778 26.9814L37.1481 24.6739V25.1481L34.6444 27.4851C34.6481 27.4185 34.6481 27.3518 34.6556 27.2814ZM34.6371 28.6777L37.1444 26.3332V26.8036L34.6556 29.1295C34.6481 28.9851 34.6407 28.8332 34.6371 28.6777ZM34.6815 29.4666L37.1481 27.1629V27.6332L34.7185 29.8999C34.7037 29.7666 34.6926 29.6185 34.6815 29.4666ZM32.5037 27.8222L29.8 30.3481L29.7778 29.8962L32.526 27.3295L32.5037 27.8222ZM32.4852 28.1962L32.463 28.6925L29.8371 31.1406L29.8148 30.6888L32.4852 28.1962ZM32.5444 26.9518L29.7593 29.5555L29.7371 29.1036L32.5667 26.4592L32.5444 26.9518ZM32.5852 26.0851L29.7185 28.7629L29.6963 28.311L32.6074 25.5925L32.5852 26.0851ZM32.626 25.2147L29.6815 27.9629L29.6593 27.511L32.6481 24.7222L32.626 25.2147ZM30.2852 21.4518C30.5 21.0739 30.7556 20.7222 31.0519 20.4036L31.0926 20.3666C31.1519 20.4258 31.2297 20.511 31.3223 20.6258L30.1371 21.7332C30.1852 21.6332 30.2371 21.5406 30.2852 21.4518ZM29.8704 22.3369L31.4815 20.8332C31.5444 20.9185 31.6148 21.0147 31.6815 21.1185L29.6704 22.9962C29.726 22.7739 29.7926 22.5518 29.8704 22.3369ZM29.5852 23.4369L31.826 21.3443C31.8852 21.4406 31.9407 21.5443 32 21.6518L29.526 23.9629C29.5371 23.7814 29.5556 23.6036 29.5852 23.4369ZM29.526 24.711C29.5185 24.5814 29.5148 24.4555 29.5148 24.3332L32.1223 21.8999C32.1741 22.0073 32.2223 22.1185 32.2667 22.2369L29.5297 24.7888L29.526 24.711ZM29.5481 25.1295L32.363 22.4999C32.4037 22.6185 32.4407 22.7406 32.4741 22.8666L29.5667 25.5777L29.5481 25.1295ZM29.5852 25.9258L32.5444 23.1629C32.5704 23.2962 32.5963 23.4295 32.6148 23.5703L29.6074 26.3777L29.5852 25.9258ZM29.6444 27.1703L29.6223 26.7185L32.6481 23.8925C32.6593 24.0406 32.6667 24.1925 32.663 24.3481L29.6444 27.1703ZM27.4481 30.0518L25.0334 32.3036V31.8332L27.4926 29.5369C27.4815 29.7185 27.463 29.8888 27.4481 30.0518ZM27.4 30.4555C27.3704 30.6777 27.3444 30.8629 27.3223 30.9999L25.0334 33.1369V32.6666L27.4 30.4555ZM27.5223 29.1518L25.0371 31.4739V31.0036L27.5444 28.6629C27.5371 28.8295 27.5297 28.9925 27.5223 29.1518ZM27.5481 28.2962L25.0334 30.6443V30.1739L27.5481 27.8258C27.5519 27.9851 27.5519 28.1406 27.5481 28.2962ZM27.526 27.2777C27.5297 27.3443 27.5334 27.411 27.5371 27.4814L25.0334 29.8147V29.3443L27.5074 27.0332C27.5148 27.1147 27.5185 27.1962 27.526 27.2777ZM27.4778 26.7036L25.0334 28.9851V28.5147L27.4223 26.2851C27.4444 26.4222 27.463 26.5629 27.4778 26.7036ZM27.3704 25.9739L25.0334 28.1555V27.6851L27.2889 25.5814C27.3185 25.7073 27.3481 25.8406 27.3704 25.9739ZM27.1037 24.9185C27.1444 25.0406 27.1815 25.1629 27.2148 25.2851L25.0334 27.3258V26.8555L27.1037 24.9185ZM27.0074 24.6518L25.0334 26.4962V26.0258L26.863 24.3147C26.9148 24.4222 26.963 24.5369 27.0074 24.6518ZM26.7444 24.0666L25.0334 25.6666V25.1962L26.563 23.7666C26.626 23.8629 26.6852 23.9629 26.7444 24.0666ZM26.4148 23.5481L25.0334 24.8369V24.3666L26.1963 23.2814C26.2741 23.3629 26.3444 23.4518 26.4148 23.5481ZM25.0334 22.7036L25.2111 22.5369C25.3185 22.5888 25.426 22.6481 25.5297 22.711L25.0334 23.1739V22.7036ZM25.0334 23.5332L25.7519 22.8666C25.8444 22.9369 25.9334 23.011 26.0148 23.0925L25.0334 24.0073V23.5332ZM25.0334 33.8739V33.4888L27.2444 31.4258L27.2407 31.4443H27.7297L25.126 33.8703H25.0334V33.8739ZM25.5111 33.8777L28.1148 31.4481H28.6185L26.0148 33.8777H25.5111ZM26.4 33.8739L29.0037 31.4481H29.5074L26.9037 33.8739H26.4ZM27.2889 33.8739L32.4444 29.0666L32.4223 29.5592L27.7926 33.8739H27.2889ZM28.1778 33.8739L32.4 29.9369L32.3778 30.4295L28.6852 33.8739H28.1778ZM29.5741 33.8739H29.0704L32.363 30.8036L32.3407 31.2962L29.5741 33.8739ZM29.7852 34.0369L32.5593 31.4481H33.063L29.8815 34.4185C29.826 34.2332 29.7963 34.0962 29.7852 34.0369ZM29.9704 34.6925L33.4481 31.4481H33.9519L30.1074 35.0369C30.0556 34.9147 30.0111 34.7999 29.9704 34.6925ZM31.0889 36.4814C31.0297 36.4222 30.9704 36.3629 30.9148 36.3036L31.9074 35.3777C31.7148 35.7443 31.4481 36.1369 31.0889 36.4814ZM32.1815 34.7592L30.7444 36.1036C30.6704 36.011 30.6037 35.9185 30.5371 35.8258L32.3778 34.1073C32.326 34.3258 32.263 34.5443 32.1815 34.7592ZM30.3963 35.5999C30.3334 35.4962 30.2778 35.3888 30.226 35.2851L34.3407 31.4481H34.8444L30.3963 35.5999ZM32.6223 33.8739L37.1444 29.6555V30.1258L33.1297 33.8739H32.6223ZM34.8519 30.9666L37.1444 28.8258V29.2962L34.9223 31.3703L34.9037 31.2703C34.9037 31.2666 34.8815 31.1592 34.8519 30.9666ZM37.1444 33.8739H37.0667L37.1444 33.8036V33.8739ZM37.1444 33.4481L36.6852 33.8777H36.1815L37.1481 32.9777V33.4481H37.1444ZM37.1444 32.6185L35.7963 33.8777H35.2926L37.1481 32.1481V32.6185H37.1444ZM37.1444 31.7851L34.9074 33.8739H34.4037L37.1481 31.3147V31.7851H37.1444ZM37.1481 30.9555L34.0185 33.8739H33.5148L37.1481 30.4851V30.9555ZM37.1481 28.4666L34.8074 30.6518C34.7889 30.5258 34.7704 30.3851 34.7556 30.2295L37.1481 27.9962V28.4666ZM37.1481 25.9777L34.6297 28.3295C34.6297 28.1739 34.6297 28.0185 34.6334 27.8555L37.1481 25.5073V25.9777Z" fill="#D7AD06"/>
<path d="M31.7223 20.6592C31.7482 20.6962 31.7741 20.7295 31.8037 20.7702C31.7741 20.7332 31.7482 20.6962 31.7223 20.6592Z" fill="#D7AD06"/>
<path d="M31.6445 20.5591C31.6704 20.5924 31.6964 20.6257 31.7223 20.6591C31.6964 20.6257 31.6704 20.5924 31.6445 20.5591Z" fill="#D7AD06"/>
<path d="M29.7185 21.9294C29.7444 21.8702 29.7704 21.8109 29.7963 21.7554C29.7704 21.8146 29.7444 21.8702 29.7185 21.9294Z" fill="#D7AD06"/>
<path d="M31.8852 20.8887C31.9148 20.9294 31.9408 20.9739 31.9704 21.0146C31.9408 20.9739 31.9148 20.9294 31.8852 20.8887Z" fill="#D7AD06"/>
<path d="M29.3111 23.2888C29.3334 23.1703 29.3556 23.0555 29.3815 22.9407C29.3556 23.0555 29.3297 23.1703 29.3111 23.2888Z" fill="#D7AD06"/>
<rect x="79" y="39" width="164" height="1" fill="white"/>
</svg>
