<svg width="220" height="220" viewBox="0 0 220 220" fill="none" xmlns="http://www.w3.org/2000/svg">
<path d="M7.09677 7.0968H14.1935V14.1936H7.09677V7.0968ZM14.1935 7.0968H21.2903V14.1936H14.1935V7.0968ZM21.2903 7.0968H28.3871V14.1936H21.2903V7.0968ZM28.3871 7.0968H35.4839V14.1936H28.3871V7.0968ZM35.4839 7.0968H42.5806V14.1936H35.4839V7.0968ZM42.5806 7.0968H49.6774V14.1936H42.5806V7.0968ZM49.6774 7.0968H56.7742V14.1936H49.6774V7.0968ZM63.871 7.0968H70.9677V14.1936H63.871V7.0968ZM85.1613 7.0968H92.2581V14.1936H85.1613V7.0968ZM106.452 7.0968H113.548V14.1936H106.452V7.0968ZM113.548 7.0968H120.645V14.1936H113.548V7.0968ZM120.645 7.0968H127.742V14.1936H120.645V7.0968ZM127.742 7.0968H134.839V14.1936H127.742V7.0968ZM134.839 7.0968H141.935V14.1936H134.839V7.0968ZM163.226 7.0968H170.323V14.1936H163.226V7.0968ZM170.323 7.0968H177.419V14.1936H170.323V7.0968ZM177.419 7.0968H184.516V14.1936H177.419V7.0968ZM184.516 7.0968H191.613V14.1936H184.516V7.0968ZM191.613 7.0968H198.71V14.1936H191.613V7.0968ZM198.71 7.0968H205.806V14.1936H198.71V7.0968ZM205.806 7.0968H212.903V14.1936H205.806V7.0968ZM7.09677 14.1936H14.1935V21.2903H7.09677V14.1936ZM49.6774 14.1936H56.7742V21.2903H49.6774V14.1936ZM78.0645 14.1936H85.1613V21.2903H78.0645V14.1936ZM127.742 14.1936H134.839V21.2903H127.742V14.1936ZM134.839 14.1936H141.935V21.2903H134.839V14.1936ZM141.935 14.1936H149.032V21.2903H141.935V14.1936ZM163.226 14.1936H170.323V21.2903H163.226V14.1936ZM205.806 14.1936H212.903V21.2903H205.806V14.1936ZM7.09677 21.2903H14.1935V28.3871H7.09677V21.2903ZM21.2903 21.2903H28.3871V28.3871H21.2903V21.2903ZM28.3871 21.2903H35.4839V28.3871H28.3871V21.2903ZM35.4839 21.2903H42.5806V28.3871H35.4839V21.2903ZM49.6774 21.2903H56.7742V28.3871H49.6774V21.2903ZM63.871 21.2903H70.9677V28.3871H63.871V21.2903ZM70.9677 21.2903H78.0645V28.3871H70.9677V21.2903ZM78.0645 21.2903H85.1613V28.3871H78.0645V21.2903ZM106.452 21.2903H113.548V28.3871H106.452V21.2903ZM113.548 21.2903H120.645V28.3871H113.548V21.2903ZM120.645 21.2903H127.742V28.3871H120.645V21.2903ZM127.742 21.2903H134.839V28.3871H127.742V21.2903ZM141.935 21.2903H149.032V28.3871H141.935V21.2903ZM149.032 21.2903H156.129V28.3871H149.032V21.2903ZM163.226 21.2903H170.323V28.3871H163.226V21.2903ZM177.419 21.2903H184.516V28.3871H177.419V21.2903ZM184.516 21.2903H191.613V28.3871H184.516V21.2903ZM191.613 21.2903H198.71V28.3871H191.613V21.2903ZM205.806 21.2903H212.903V28.3871H205.806V21.2903ZM7.09677 28.3871H14.1935V35.4839H7.09677V28.3871ZM21.2903 28.3871H28.3871V35.4839H21.2903V28.3871ZM28.3871 28.3871H35.4839V35.4839H28.3871V28.3871ZM35.4839 28.3871H42.5806V35.4839H35.4839V28.3871ZM49.6774 28.3871H56.7742V35.4839H49.6774V28.3871ZM63.871 28.3871H70.9677V35.4839H63.871V28.3871ZM70.9677 28.3871H78.0645V35.4839H70.9677V28.3871ZM85.1613 28.3871H92.2581V35.4839H85.1613V28.3871ZM92.2581 28.3871H99.3548V35.4839H92.2581V28.3871ZM106.452 28.3871H113.548V35.4839H106.452V28.3871ZM113.548 28.3871H120.645V35.4839H113.548V28.3871ZM134.839 28.3871H141.935V35.4839H134.839V28.3871ZM163.226 28.3871H170.323V35.4839H163.226V28.3871ZM177.419 28.3871H184.516V35.4839H177.419V28.3871ZM184.516 28.3871H191.613V35.4839H184.516V28.3871ZM191.613 28.3871H198.71V35.4839H191.613V28.3871ZM205.806 28.3871H212.903V35.4839H205.806V28.3871ZM7.09677 35.4839H14.1935V42.5807H7.09677V35.4839ZM21.2903 35.4839H28.3871V42.5807H21.2903V35.4839ZM28.3871 35.4839H35.4839V42.5807H28.3871V35.4839ZM35.4839 35.4839H42.5806V42.5807H35.4839V35.4839ZM49.6774 35.4839H56.7742V42.5807H49.6774V35.4839ZM70.9677 35.4839H78.0645V42.5807H70.9677V35.4839ZM78.0645 35.4839H85.1613V42.5807H78.0645V35.4839ZM85.1613 35.4839H92.2581V42.5807H85.1613V35.4839ZM99.3548 35.4839H106.452V42.5807H99.3548V35.4839ZM106.452 35.4839H113.548V42.5807H106.452V35.4839ZM113.548 35.4839H120.645V42.5807H113.548V35.4839ZM120.645 35.4839H127.742V42.5807H120.645V35.4839ZM134.839 35.4839H141.935V42.5807H134.839V35.4839ZM163.226 35.4839H170.323V42.5807H163.226V35.4839ZM177.419 35.4839H184.516V42.5807H177.419V35.4839ZM184.516 35.4839H191.613V42.5807H184.516V35.4839ZM191.613 35.4839H198.71V42.5807H191.613V35.4839ZM205.806 35.4839H212.903V42.5807H205.806V35.4839ZM7.09677 42.5807H14.1935V49.6774H7.09677V42.5807ZM49.6774 42.5807H56.7742V49.6774H49.6774V42.5807ZM63.871 42.5807H70.9677V49.6774H63.871V42.5807ZM70.9677 42.5807H78.0645V49.6774H70.9677V42.5807ZM85.1613 42.5807H92.2581V49.6774H85.1613V42.5807ZM92.2581 42.5807H99.3548V49.6774H92.2581V42.5807ZM99.3548 42.5807H106.452V49.6774H99.3548V42.5807ZM113.548 42.5807H120.645V49.6774H113.548V42.5807ZM120.645 42.5807H127.742V49.6774H120.645V42.5807ZM141.935 42.5807H149.032V49.6774H141.935V42.5807ZM149.032 42.5807H156.129V49.6774H149.032V42.5807ZM163.226 42.5807H170.323V49.6774H163.226V42.5807ZM205.806 42.5807H212.903V49.6774H205.806V42.5807ZM7.09677 49.6774H14.1935V56.7742H7.09677V49.6774ZM14.1935 49.6774H21.2903V56.7742H14.1935V49.6774ZM21.2903 49.6774H28.3871V56.7742H21.2903V49.6774ZM28.3871 49.6774H35.4839V56.7742H28.3871V49.6774ZM35.4839 49.6774H42.5806V56.7742H35.4839V49.6774ZM42.5806 49.6774H49.6774V56.7742H42.5806V49.6774ZM49.6774 49.6774H56.7742V56.7742H49.6774V49.6774ZM63.871 49.6774H70.9677V56.7742H63.871V49.6774ZM78.0645 49.6774H85.1613V56.7742H78.0645V49.6774ZM92.2581 49.6774H99.3548V56.7742H92.2581V49.6774ZM106.452 49.6774H113.548V56.7742H106.452V49.6774ZM120.645 49.6774H127.742V56.7742H120.645V49.6774ZM134.839 49.6774H141.935V56.7742H134.839V49.6774ZM149.032 49.6774H156.129V56.7742H149.032V49.6774ZM163.226 49.6774H170.323V56.7742H163.226V49.6774ZM170.323 49.6774H177.419V56.7742H170.323V49.6774ZM177.419 49.6774H184.516V56.7742H177.419V49.6774ZM184.516 49.6774H191.613V56.7742H184.516V49.6774ZM191.613 49.6774H198.71V56.7742H191.613V49.6774ZM198.71 49.6774H205.806V56.7742H198.71V49.6774ZM205.806 49.6774H212.903V56.7742H205.806V49.6774ZM63.871 56.7742H70.9677V63.871H63.871V56.7742ZM70.9677 56.7742H78.0645V63.871H70.9677V56.7742ZM85.1613 56.7742H92.2581V63.871H85.1613V56.7742ZM99.3548 56.7742H106.452V63.871H99.3548V56.7742ZM127.742 56.7742H134.839V63.871H127.742V56.7742ZM134.839 56.7742H141.935V63.871H134.839V56.7742ZM141.935 56.7742H149.032V63.871H141.935V56.7742ZM149.032 56.7742H156.129V63.871H149.032V56.7742ZM14.1935 63.871H21.2903V70.9678H14.1935V63.871ZM28.3871 63.871H35.4839V70.9678H28.3871V63.871ZM42.5806 63.871H49.6774V70.9678H42.5806V63.871ZM49.6774 63.871H56.7742V70.9678H49.6774V63.871ZM56.7742 63.871H63.871V70.9678H56.7742V63.871ZM63.871 63.871H70.9677V70.9678H63.871V63.871ZM70.9677 63.871H78.0645V70.9678H70.9677V63.871ZM85.1613 63.871H92.2581V70.9678H85.1613V63.871ZM92.2581 63.871H99.3548V70.9678H92.2581V63.871ZM99.3548 63.871H106.452V70.9678H99.3548V63.871ZM106.452 63.871H113.548V70.9678H106.452V63.871ZM127.742 63.871H134.839V70.9678H127.742V63.871ZM134.839 63.871H141.935V70.9678H134.839V63.871ZM141.935 63.871H149.032V70.9678H141.935V63.871ZM149.032 63.871H156.129V70.9678H149.032V63.871ZM156.129 63.871H163.226V70.9678H156.129V63.871ZM163.226 63.871H170.323V70.9678H163.226V63.871ZM170.323 63.871H177.419V70.9678H170.323V63.871ZM184.516 63.871H191.613V70.9678H184.516V63.871ZM191.613 63.871H198.71V70.9678H191.613V63.871ZM205.806 63.871H212.903V70.9678H205.806V63.871ZM7.09677 70.9678H14.1935V78.0645H7.09677V70.9678ZM14.1935 70.9678H21.2903V78.0645H14.1935V70.9678ZM21.2903 70.9678H28.3871V78.0645H21.2903V70.9678ZM28.3871 70.9678H35.4839V78.0645H28.3871V70.9678ZM63.871 70.9678H70.9677V78.0645H63.871V70.9678ZM106.452 70.9678H113.548V78.0645H106.452V70.9678ZM113.548 70.9678H120.645V78.0645H113.548V70.9678ZM120.645 70.9678H127.742V78.0645H120.645V70.9678ZM127.742 70.9678H134.839V78.0645H127.742V70.9678ZM134.839 70.9678H141.935V78.0645H134.839V70.9678ZM141.935 70.9678H149.032V78.0645H141.935V70.9678ZM156.129 70.9678H163.226V78.0645H156.129V70.9678ZM170.323 70.9678H177.419V78.0645H170.323V70.9678ZM184.516 70.9678H191.613V78.0645H184.516V70.9678ZM191.613 70.9678H198.71V78.0645H191.613V70.9678ZM205.806 70.9678H212.903V78.0645H205.806V70.9678ZM7.09677 78.0645H14.1935V85.1613H7.09677V78.0645ZM28.3871 78.0645H35.4839V85.1613H28.3871V78.0645ZM35.4839 78.0645H42.5806V85.1613H35.4839V78.0645ZM42.5806 78.0645H49.6774V85.1613H42.5806V78.0645ZM49.6774 78.0645H56.7742V85.1613H49.6774V78.0645ZM70.9677 78.0645H78.0645V85.1613H70.9677V78.0645ZM85.1613 78.0645H92.2581V85.1613H85.1613V78.0645ZM106.452 78.0645H113.548V85.1613H106.452V78.0645ZM120.645 78.0645H127.742V85.1613H120.645V78.0645ZM141.935 78.0645H149.032V85.1613H141.935V78.0645ZM163.226 78.0645H170.323V85.1613H163.226V78.0645ZM177.419 78.0645H184.516V85.1613H177.419V78.0645ZM198.71 78.0645H205.806V85.1613H198.71V78.0645ZM7.09677 85.1613H14.1935V92.2581H7.09677V85.1613ZM14.1935 85.1613H21.2903V92.2581H14.1935V85.1613ZM21.2903 85.1613H28.3871V92.2581H21.2903V85.1613ZM56.7742 85.1613H63.871V92.2581H56.7742V85.1613ZM70.9677 85.1613H78.0645V92.2581H70.9677V85.1613ZM99.3548 85.1613H106.452V92.2581H99.3548V85.1613ZM106.452 85.1613H113.548V92.2581H106.452V85.1613ZM113.548 85.1613H120.645V92.2581H113.548V85.1613ZM134.839 85.1613H141.935V92.2581H134.839V85.1613ZM141.935 85.1613H149.032V92.2581H141.935V85.1613ZM149.032 85.1613H156.129V92.2581H149.032V85.1613ZM156.129 85.1613H163.226V92.2581H156.129V85.1613ZM163.226 85.1613H170.323V92.2581H163.226V85.1613ZM170.323 85.1613H177.419V92.2581H170.323V85.1613ZM191.613 85.1613H198.71V92.2581H191.613V85.1613ZM198.71 85.1613H205.806V92.2581H198.71V85.1613ZM7.09677 92.2581H14.1935V99.3549H7.09677V92.2581ZM21.2903 92.2581H28.3871V99.3549H21.2903V92.2581ZM35.4839 92.2581H42.5806V99.3549H35.4839V92.2581ZM42.5806 92.2581H49.6774V99.3549H42.5806V92.2581ZM49.6774 92.2581H56.7742V99.3549H49.6774V92.2581ZM56.7742 92.2581H63.871V99.3549H56.7742V92.2581ZM70.9677 92.2581H78.0645V99.3549H70.9677V92.2581ZM78.0645 92.2581H85.1613V99.3549H78.0645V92.2581ZM85.1613 92.2581H92.2581V99.3549H85.1613V92.2581ZM99.3548 92.2581H106.452V99.3549H99.3548V92.2581ZM113.548 92.2581H120.645V99.3549H113.548V92.2581ZM120.645 92.2581H127.742V99.3549H120.645V92.2581ZM127.742 92.2581H134.839V99.3549H127.742V92.2581ZM134.839 92.2581H141.935V99.3549H134.839V92.2581ZM149.032 92.2581H156.129V99.3549H149.032V92.2581ZM163.226 92.2581H170.323V99.3549H163.226V92.2581ZM170.323 92.2581H177.419V99.3549H170.323V92.2581ZM184.516 92.2581H191.613V99.3549H184.516V92.2581ZM191.613 92.2581H198.71V99.3549H191.613V92.2581ZM7.09677 99.3549H14.1935V106.452H7.09677V99.3549ZM14.1935 99.3549H21.2903V106.452H14.1935V99.3549ZM28.3871 99.3549H35.4839V106.452H28.3871V99.3549ZM35.4839 99.3549H42.5806V106.452H35.4839V99.3549ZM70.9677 99.3549H78.0645V106.452H70.9677V99.3549ZM99.3548 99.3549H106.452V106.452H99.3548V99.3549ZM113.548 99.3549H120.645V106.452H113.548V99.3549ZM141.935 99.3549H149.032V106.452H141.935V99.3549ZM156.129 99.3549H163.226V106.452H156.129V99.3549ZM170.323 99.3549H177.419V106.452H170.323V99.3549ZM184.516 99.3549H191.613V106.452H184.516V99.3549ZM198.71 99.3549H205.806V106.452H198.71V99.3549ZM7.09677 106.452H14.1935V113.548H7.09677V106.452ZM28.3871 106.452H35.4839V113.548H28.3871V106.452ZM35.4839 106.452H42.5806V113.548H35.4839V106.452ZM42.5806 106.452H49.6774V113.548H42.5806V106.452ZM49.6774 106.452H56.7742V113.548H49.6774V106.452ZM92.2581 106.452H99.3548V113.548H92.2581V106.452ZM106.452 106.452H113.548V113.548H106.452V106.452ZM113.548 106.452H120.645V113.548H113.548V106.452ZM120.645 106.452H127.742V113.548H120.645V106.452ZM156.129 106.452H163.226V113.548H156.129V106.452ZM198.71 106.452H205.806V113.548H198.71V106.452ZM205.806 106.452H212.903V113.548H205.806V106.452ZM7.09677 113.548H14.1935V120.645H7.09677V113.548ZM14.1935 113.548H21.2903V120.645H14.1935V113.548ZM21.2903 113.548H28.3871V120.645H21.2903V113.548ZM56.7742 113.548H63.871V120.645H56.7742V113.548ZM63.871 113.548H70.9677V120.645H63.871V113.548ZM70.9677 113.548H78.0645V120.645H70.9677V113.548ZM78.0645 113.548H85.1613V120.645H78.0645V113.548ZM92.2581 113.548H99.3548V120.645H92.2581V113.548ZM99.3548 113.548H106.452V120.645H99.3548V113.548ZM106.452 113.548H113.548V120.645H106.452V113.548ZM141.935 113.548H149.032V120.645H141.935V113.548ZM149.032 113.548H156.129V120.645H149.032V113.548ZM156.129 113.548H163.226V120.645H156.129V113.548ZM163.226 113.548H170.323V120.645H163.226V113.548ZM170.323 113.548H177.419V120.645H170.323V113.548ZM14.1935 120.645H21.2903V127.742H14.1935V120.645ZM35.4839 120.645H42.5806V127.742H35.4839V120.645ZM49.6774 120.645H56.7742V127.742H49.6774V120.645ZM56.7742 120.645H63.871V127.742H56.7742V120.645ZM63.871 120.645H70.9677V127.742H63.871V120.645ZM70.9677 120.645H78.0645V127.742H70.9677V120.645ZM92.2581 120.645H99.3548V127.742H92.2581V120.645ZM106.452 120.645H113.548V127.742H106.452V120.645ZM113.548 120.645H120.645V127.742H113.548V120.645ZM120.645 120.645H127.742V127.742H120.645V120.645ZM141.935 120.645H149.032V127.742H141.935V120.645ZM149.032 120.645H156.129V127.742H149.032V120.645ZM156.129 120.645H163.226V127.742H156.129V120.645ZM163.226 120.645H170.323V127.742H163.226V120.645ZM170.323 120.645H177.419V127.742H170.323V120.645ZM205.806 120.645H212.903V127.742H205.806V120.645ZM21.2903 127.742H28.3871V134.839H21.2903V127.742ZM35.4839 127.742H42.5806V134.839H35.4839V127.742ZM42.5806 127.742H49.6774V134.839H42.5806V127.742ZM78.0645 127.742H85.1613V134.839H78.0645V127.742ZM85.1613 127.742H92.2581V134.839H85.1613V127.742ZM92.2581 127.742H99.3548V134.839H92.2581V127.742ZM106.452 127.742H113.548V134.839H106.452V127.742ZM113.548 127.742H120.645V134.839H113.548V127.742ZM127.742 127.742H134.839V134.839H127.742V127.742ZM141.935 127.742H149.032V134.839H141.935V127.742ZM156.129 127.742H163.226V134.839H156.129V127.742ZM170.323 127.742H177.419V134.839H170.323V127.742ZM198.71 127.742H205.806V134.839H198.71V127.742ZM205.806 127.742H212.903V134.839H205.806V127.742ZM7.09677 134.839H14.1935V141.936H7.09677V134.839ZM21.2903 134.839H28.3871V141.936H21.2903V134.839ZM28.3871 134.839H35.4839V141.936H28.3871V134.839ZM42.5806 134.839H49.6774V141.936H42.5806V134.839ZM49.6774 134.839H56.7742V141.936H49.6774V134.839ZM56.7742 134.839H63.871V141.936H56.7742V134.839ZM63.871 134.839H70.9677V141.936H63.871V134.839ZM78.0645 134.839H85.1613V141.936H78.0645V134.839ZM106.452 134.839H113.548V141.936H106.452V134.839ZM127.742 134.839H134.839V141.936H127.742V134.839ZM141.935 134.839H149.032V141.936H141.935V134.839ZM149.032 134.839H156.129V141.936H149.032V134.839ZM156.129 134.839H163.226V141.936H156.129V134.839ZM170.323 134.839H177.419V141.936H170.323V134.839ZM184.516 134.839H191.613V141.936H184.516V134.839ZM198.71 134.839H205.806V141.936H198.71V134.839ZM205.806 134.839H212.903V141.936H205.806V134.839ZM28.3871 141.936H35.4839V149.032H28.3871V141.936ZM35.4839 141.936H42.5806V149.032H35.4839V141.936ZM42.5806 141.936H49.6774V149.032H42.5806V141.936ZM56.7742 141.936H63.871V149.032H56.7742V141.936ZM70.9677 141.936H78.0645V149.032H70.9677V141.936ZM99.3548 141.936H106.452V149.032H99.3548V141.936ZM106.452 141.936H113.548V149.032H106.452V141.936ZM113.548 141.936H120.645V149.032H113.548V141.936ZM120.645 141.936H127.742V149.032H120.645V141.936ZM127.742 141.936H134.839V149.032H127.742V141.936ZM134.839 141.936H141.935V149.032H134.839V141.936ZM141.935 141.936H149.032V149.032H141.935V141.936ZM149.032 141.936H156.129V149.032H149.032V141.936ZM177.419 141.936H184.516V149.032H177.419V141.936ZM184.516 141.936H191.613V149.032H184.516V141.936ZM198.71 141.936H205.806V149.032H198.71V141.936ZM7.09677 149.032H14.1935V156.129H7.09677V149.032ZM49.6774 149.032H56.7742V156.129H49.6774V149.032ZM63.871 149.032H70.9677V156.129H63.871V149.032ZM70.9677 149.032H78.0645V156.129H70.9677V149.032ZM92.2581 149.032H99.3548V156.129H92.2581V149.032ZM120.645 149.032H127.742V156.129H120.645V149.032ZM141.935 149.032H149.032V156.129H141.935V149.032ZM149.032 149.032H156.129V156.129H149.032V149.032ZM156.129 149.032H163.226V156.129H156.129V149.032ZM163.226 149.032H170.323V156.129H163.226V149.032ZM170.323 149.032H177.419V156.129H170.323V149.032ZM177.419 149.032H184.516V156.129H177.419V149.032ZM191.613 149.032H198.71V156.129H191.613V149.032ZM198.71 149.032H205.806V156.129H198.71V149.032ZM205.806 149.032H212.903V156.129H205.806V149.032ZM63.871 156.129H70.9677V163.226H63.871V156.129ZM70.9677 156.129H78.0645V163.226H70.9677V156.129ZM106.452 156.129H113.548V163.226H106.452V156.129ZM120.645 156.129H127.742V163.226H120.645V156.129ZM127.742 156.129H134.839V163.226H127.742V156.129ZM134.839 156.129H141.935V163.226H134.839V156.129ZM149.032 156.129H156.129V163.226H149.032V156.129ZM177.419 156.129H184.516V163.226H177.419V156.129ZM205.806 156.129H212.903V163.226H205.806V156.129ZM7.09677 163.226H14.1935V170.323H7.09677V163.226ZM14.1935 163.226H21.2903V170.323H14.1935V163.226ZM21.2903 163.226H28.3871V170.323H21.2903V163.226ZM28.3871 163.226H35.4839V170.323H28.3871V163.226ZM35.4839 163.226H42.5806V170.323H35.4839V163.226ZM42.5806 163.226H49.6774V170.323H42.5806V163.226ZM49.6774 163.226H56.7742V170.323H49.6774V163.226ZM63.871 163.226H70.9677V170.323H63.871V163.226ZM78.0645 163.226H85.1613V170.323H78.0645V163.226ZM99.3548 163.226H106.452V170.323H99.3548V163.226ZM106.452 163.226H113.548V170.323H106.452V163.226ZM120.645 163.226H127.742V170.323H120.645V163.226ZM134.839 163.226H141.935V170.323H134.839V163.226ZM149.032 163.226H156.129V170.323H149.032V163.226ZM163.226 163.226H170.323V170.323H163.226V163.226ZM177.419 163.226H184.516V170.323H177.419V163.226ZM184.516 163.226H191.613V170.323H184.516V163.226ZM191.613 163.226H198.71V170.323H191.613V163.226ZM198.71 163.226H205.806V170.323H198.71V163.226ZM7.09677 170.323H14.1935V177.419H7.09677V170.323ZM49.6774 170.323H56.7742V177.419H49.6774V170.323ZM63.871 170.323H70.9677V177.419H63.871V170.323ZM70.9677 170.323H78.0645V177.419H70.9677V170.323ZM78.0645 170.323H85.1613V177.419H78.0645V170.323ZM85.1613 170.323H92.2581V177.419H85.1613V170.323ZM106.452 170.323H113.548V177.419H106.452V170.323ZM113.548 170.323H120.645V177.419H113.548V170.323ZM120.645 170.323H127.742V177.419H120.645V170.323ZM134.839 170.323H141.935V177.419H134.839V170.323ZM149.032 170.323H156.129V177.419H149.032V170.323ZM177.419 170.323H184.516V177.419H177.419V170.323ZM191.613 170.323H198.71V177.419H191.613V170.323ZM198.71 170.323H205.806V177.419H198.71V170.323ZM205.806 170.323H212.903V177.419H205.806V170.323ZM7.09677 177.419H14.1935V184.516H7.09677V177.419ZM21.2903 177.419H28.3871V184.516H21.2903V177.419ZM28.3871 177.419H35.4839V184.516H28.3871V177.419ZM35.4839 177.419H42.5806V184.516H35.4839V177.419ZM49.6774 177.419H56.7742V184.516H49.6774V177.419ZM70.9677 177.419H78.0645V184.516H70.9677V177.419ZM78.0645 177.419H85.1613V184.516H78.0645V177.419ZM85.1613 177.419H92.2581V184.516H85.1613V177.419ZM120.645 177.419H127.742V184.516H120.645V177.419ZM134.839 177.419H141.935V184.516H134.839V177.419ZM149.032 177.419H156.129V184.516H149.032V177.419ZM156.129 177.419H163.226V184.516H156.129V177.419ZM163.226 177.419H170.323V184.516H163.226V177.419ZM170.323 177.419H177.419V184.516H170.323V177.419ZM177.419 177.419H184.516V184.516H177.419V177.419ZM184.516 177.419H191.613V184.516H184.516V177.419ZM198.71 177.419H205.806V184.516H198.71V177.419ZM7.09677 184.516H14.1935V191.613H7.09677V184.516ZM21.2903 184.516H28.3871V191.613H21.2903V184.516ZM28.3871 184.516H35.4839V191.613H28.3871V184.516ZM35.4839 184.516H42.5806V191.613H35.4839V184.516ZM49.6774 184.516H56.7742V191.613H49.6774V184.516ZM63.871 184.516H70.9677V191.613H63.871V184.516ZM78.0645 184.516H85.1613V191.613H78.0645V184.516ZM113.548 184.516H120.645V191.613H113.548V184.516ZM134.839 184.516H141.935V191.613H134.839V184.516ZM141.935 184.516H149.032V191.613H141.935V184.516ZM149.032 184.516H156.129V191.613H149.032V184.516ZM156.129 184.516H163.226V191.613H156.129V184.516ZM163.226 184.516H170.323V191.613H163.226V184.516ZM177.419 184.516H184.516V191.613H177.419V184.516ZM205.806 184.516H212.903V191.613H205.806V184.516ZM7.09677 191.613H14.1935V198.71H7.09677V191.613ZM21.2903 191.613H28.3871V198.71H21.2903V191.613ZM28.3871 191.613H35.4839V198.71H28.3871V191.613ZM35.4839 191.613H42.5806V198.71H35.4839V191.613ZM49.6774 191.613H56.7742V198.71H49.6774V191.613ZM70.9677 191.613H78.0645V198.71H70.9677V191.613ZM85.1613 191.613H92.2581V198.71H85.1613V191.613ZM99.3548 191.613H106.452V198.71H99.3548V191.613ZM113.548 191.613H120.645V198.71H113.548V191.613ZM120.645 191.613H127.742V198.71H120.645V191.613ZM134.839 191.613H141.935V198.71H134.839V191.613ZM141.935 191.613H149.032V198.71H141.935V191.613ZM149.032 191.613H156.129V198.71H149.032V191.613ZM177.419 191.613H184.516V198.71H177.419V191.613ZM191.613 191.613H198.71V198.71H191.613V191.613ZM205.806 191.613H212.903V198.71H205.806V191.613ZM7.09677 198.71H14.1935V205.806H7.09677V198.71ZM49.6774 198.71H56.7742V205.806H49.6774V198.71ZM63.871 198.71H70.9677V205.806H63.871V198.71ZM70.9677 198.71H78.0645V205.806H70.9677V198.71ZM85.1613 198.71H92.2581V205.806H85.1613V198.71ZM99.3548 198.71H106.452V205.806H99.3548V198.71ZM120.645 198.71H127.742V205.806H120.645V198.71ZM127.742 198.71H134.839V205.806H127.742V198.71ZM156.129 198.71H163.226V205.806H156.129V198.71ZM170.323 198.71H177.419V205.806H170.323V198.71ZM198.71 198.71H205.806V205.806H198.71V198.71ZM7.09677 205.806H14.1935V212.903H7.09677V205.806ZM14.1935 205.806H21.2903V212.903H14.1935V205.806ZM21.2903 205.806H28.3871V212.903H21.2903V205.806ZM28.3871 205.806H35.4839V212.903H28.3871V205.806ZM35.4839 205.806H42.5806V212.903H35.4839V205.806ZM42.5806 205.806H49.6774V212.903H42.5806V205.806ZM49.6774 205.806H56.7742V212.903H49.6774V205.806ZM113.548 205.806H120.645V212.903H113.548V205.806ZM127.742 205.806H134.839V212.903H127.742V205.806ZM141.935 205.806H149.032V212.903H141.935V205.806ZM149.032 205.806H156.129V212.903H149.032V205.806ZM156.129 205.806H163.226V212.903H156.129V205.806ZM177.419 205.806H184.516V212.903H177.419V205.806ZM184.516 205.806H191.613V212.903H184.516V205.806ZM198.71 205.806H205.806V212.903H198.71V205.806Z" fill="black" stroke="black"/>
</svg>
